<svg version="1.1" id="Layer_1" xmlns="http://www.w3.org/2000/svg" xmlns:xlink="http://www.w3.org/1999/xlink" x="0px" y="0px"
	 width="100%" viewBox="0 0 280 280" enable-background="new 0 0 280 280" xml:space="preserve">
<path fill="#010000" opacity="1.000000" stroke="none" 
	d="
M165.000000,281.000000 
	C110.000000,281.000000 55.500000,281.000000 1.000000,281.000000 
	C1.000000,187.666672 1.000000,94.333336 1.000000,1.000000 
	C94.333336,1.000000 187.666672,1.000000 281.000000,1.000000 
	C281.000000,94.333336 281.000000,187.666672 281.000000,281.000000 
	C242.500000,281.000000 204.000000,281.000000 165.000000,281.000000 
M238.391632,56.764530 
	C229.261536,51.597790 220.131424,46.431049 210.353485,40.957516 
	C201.300262,35.819111 192.247040,30.680708 182.778137,25.013512 
	C170.679718,18.077375 158.581314,11.141241 146.401398,4.158380 
	C146.401398,95.703217 146.401398,186.863358 146.401398,278.959106 
	C159.099701,271.443207 171.099075,264.341003 183.805725,257.093811 
	C185.078186,256.371979 186.316238,255.579330 187.629486,254.941483 
	C191.711777,252.958694 193.732315,250.325500 193.644333,245.203506 
	C193.276505,223.789505 193.489334,202.365524 193.489334,180.945190 
	C193.489334,179.217804 193.489319,177.490433 193.489319,175.209076 
	C200.064163,178.851822 205.799393,182.029388 211.980682,185.756424 
	C217.211731,188.732162 222.442795,191.707916 227.673538,194.683487 
	C228.140625,193.853455 228.428711,193.580124 228.429474,193.305969 
	C228.475540,177.026138 228.529114,160.746124 228.453705,144.466690 
	C228.448563,143.359161 227.754288,141.769424 226.874832,141.233017 
	C222.399612,138.503479 217.757751,136.047150 212.849014,132.914444 
	C207.377228,129.894928 201.871445,126.934303 196.460938,123.808678 
	C195.309998,123.143784 193.692856,121.897026 193.669250,120.886147 
	C193.453430,111.643692 193.542374,102.394135 193.542374,92.327209 
	C199.906754,95.809494 205.454529,98.844963 211.589859,102.261078 
	C220.237549,107.240929 228.885254,112.220787 237.938232,117.793655 
	C246.231857,122.564598 254.525482,127.335541 263.517517,132.508255 
	C263.517517,112.162315 263.574799,92.890396 263.394745,73.620689 
	C263.382080,72.266243 261.908142,70.446884 260.616455,69.662468 
	C253.495773,65.338158 246.220490,61.268425 238.391632,56.764530 
M57.230618,48.991859 
	C45.399796,55.774250 33.634907,62.676517 21.687618,69.247139 
	C19.003368,70.723396 18.449179,72.428154 18.462444,75.147964 
	C18.548405,92.771225 18.499123,110.395126 18.522713,128.018784 
	C18.524391,129.272430 18.753859,130.525772 18.921698,132.228638 
	C26.642349,127.782082 33.962849,123.693382 41.152393,119.386093 
	C47.195652,115.765541 53.086430,111.890488 59.782627,108.011375 
	C69.101562,102.977242 78.420486,97.943108 88.472939,92.512718 
	C88.472939,95.235725 88.472939,97.193657 88.472939,99.151588 
	C88.472954,147.925980 88.547028,196.700653 88.352417,245.474258 
	C88.334015,250.086182 89.512444,252.982330 94.348694,254.899918 
	C107.958252,262.785431 121.567802,270.670929 135.782516,278.907104 
	C135.782516,186.729477 135.782516,95.596664 135.782516,3.889565 
	C121.582939,12.099692 107.793381,20.072744 93.318062,28.194351 
	C88.757774,30.772896 84.161827,33.290752 79.645317,35.943817 
	C72.386101,40.207977 65.179382,44.561501 57.230618,48.991859 
z"/>
<path fill="#FF8500" opacity="1.000000" stroke="none" 
	d="
M94.003830,28.045797 
	C107.793381,20.072744 121.582939,12.099692 135.782516,3.889565 
	C135.782516,95.596664 135.782516,186.729477 135.782516,278.907104 
	C121.567802,270.670929 107.958252,262.785431 94.187607,254.256348 
	C94.349747,250.817719 94.953133,248.022842 94.955231,245.227524 
	C95.007446,175.629242 95.007706,106.030899 94.954224,36.432617 
	C94.952080,33.636768 94.334610,30.841394 94.003830,28.045797 
z"/>
<path fill="#FF8E00" opacity="1.000000" stroke="none" 
	d="
M183.098434,257.238800 
	C171.099075,264.341003 159.099701,271.443207 146.401398,278.959106 
	C146.401398,186.863358 146.401398,95.703217 146.401398,4.158380 
	C158.581314,11.141241 170.679718,18.077375 182.815918,25.693237 
	C182.569260,28.665470 182.037628,30.957829 182.036240,33.250507 
	C181.992508,105.471169 181.989563,177.691879 182.046539,249.912521 
	C182.048462,252.354874 182.732391,254.796722 183.098434,257.238800 
z"/>
<path fill="#FF9400" opacity="1.000000" stroke="none" 
	d="
M183.452087,257.166321 
	C182.732391,254.796722 182.048462,252.354874 182.046539,249.912521 
	C181.989563,177.691879 181.992508,105.471169 182.036240,33.250507 
	C182.037628,30.957829 182.569260,28.665470 183.023773,25.957634 
	C192.247040,30.680708 201.300262,35.819111 210.677673,41.562737 
	C211.002014,62.072121 211.002151,81.976280 211.002304,101.880440 
	C205.454529,98.844963 199.906754,95.809494 193.542374,92.327209 
	C193.542374,102.394135 193.453430,111.643692 193.669250,120.886147 
	C193.692856,121.897026 195.309998,123.143784 196.460938,123.808678 
	C201.871445,126.934303 207.377228,129.894928 212.978577,133.705566 
	C213.072937,149.212463 213.097473,163.928894 212.937836,178.643326 
	C212.914047,180.836014 212.023956,183.019318 211.534637,185.206955 
	C205.799393,182.029388 200.064163,178.851822 193.489319,175.209076 
	C193.489319,177.490433 193.489334,179.217804 193.489334,180.945190 
	C193.489334,202.365524 193.276505,223.789505 193.644333,245.203506 
	C193.732315,250.325500 191.711777,252.958694 187.629486,254.941483 
	C186.316238,255.579330 185.078186,256.371979 183.452087,257.166321 
z"/>
<path fill="#F87B00" opacity="1.000000" stroke="none" 
	d="
M93.660950,28.120075 
	C94.334610,30.841394 94.952080,33.636768 94.954224,36.432617 
	C95.007706,106.030899 95.007446,175.629242 94.955231,245.227524 
	C94.953133,248.022842 94.349747,250.817719 93.921921,254.052887 
	C89.512444,252.982330 88.334015,250.086182 88.352417,245.474258 
	C88.547028,196.700653 88.472954,147.925980 88.472939,99.151588 
	C88.472939,97.193657 88.472939,95.235725 88.472939,92.512718 
	C78.420486,97.943108 69.101562,102.977242 59.404892,107.592972 
	C59.018429,90.188576 59.051445,73.202362 58.954384,56.216885 
	C58.940388,53.768509 58.300648,51.323715 57.950485,48.877258 
	C65.179382,44.561501 72.386101,40.207977 79.645317,35.943817 
	C84.161827,33.290752 88.757774,30.772896 93.660950,28.120075 
z"/>
<path fill="#FE7500" opacity="1.000000" stroke="none" 
	d="
M57.590553,48.934563 
	C58.300648,51.323715 58.940388,53.768509 58.954384,56.216885 
	C59.051445,73.202362 59.018429,90.188576 59.035934,107.651337 
	C53.086430,111.890488 47.195652,115.765541 41.152393,119.386093 
	C33.962849,123.693382 26.642349,127.782082 18.921698,132.228638 
	C18.753859,130.525772 18.524391,129.272430 18.522713,128.018784 
	C18.499123,110.395126 18.548405,92.771225 18.462444,75.147964 
	C18.449179,72.428154 19.003368,70.723396 21.687618,69.247139 
	C33.634907,62.676517 45.399796,55.774250 57.590553,48.934563 
z"/>
<path fill="#FE9A00" opacity="1.000000" stroke="none" 
	d="
M211.296082,102.070755 
	C211.002151,81.976280 211.002014,62.072121 211.001602,41.716133 
	C220.131424,46.431049 229.261536,51.597790 238.695648,57.399506 
	C239.000015,75.568291 239.051620,93.102432 238.935898,110.635475 
	C238.921417,112.826859 238.022217,115.012398 237.532959,117.200638 
	C228.885254,112.220787 220.237549,107.240929 211.296082,102.070755 
z"/>
<path fill="#FA9C00" opacity="1.000000" stroke="none" 
	d="
M237.735596,117.497147 
	C238.022217,115.012398 238.921417,112.826859 238.935898,110.635475 
	C239.051620,93.102432 239.000015,75.568291 238.998932,57.572933 
	C246.220490,61.268425 253.495773,65.338158 260.616455,69.662468 
	C261.908142,70.446884 263.382080,72.266243 263.394745,73.620689 
	C263.574799,92.890396 263.517517,112.162315 263.517517,132.508255 
	C254.525482,127.335541 246.231857,122.564598 237.735596,117.497147 
z"/>
<path fill="#F89400" opacity="1.000000" stroke="none" 
	d="
M211.757660,185.481689 
	C212.023956,183.019318 212.914047,180.836014 212.937836,178.643326 
	C213.097473,163.928894 213.072937,149.212463 213.141174,133.995926 
	C217.757751,136.047150 222.399612,138.503479 226.874832,141.233017 
	C227.754288,141.769424 228.448563,143.359161 228.453705,144.466690 
	C228.529114,160.746124 228.475540,177.026138 228.429474,193.305969 
	C228.428711,193.580124 228.140625,193.853455 227.673538,194.683487 
	C222.442795,191.707916 217.211731,188.732162 211.757660,185.481689 
z"/>
</svg>